<mxfile host="app.diagrams.net" modified="2023-10-28T05:38:18.820Z" agent="Mozilla/5.0 (Windows NT 10.0; Win64; x64) AppleWebKit/537.36 (KHTML, like Gecko) Chrome/118.0.0.0 Safari/537.36 Edg/118.0.2088.69" etag="0h6Kcpb2yWi1_d9AkX6h" version="22.0.8" type="github">
  <diagram name="第 1 页" id="BSiDAe2Zlt0LySH5Vkly">
    <mxGraphModel dx="1555" dy="661" grid="1" gridSize="8" guides="1" tooltips="1" connect="1" arrows="1" fold="1" page="0" pageScale="1" pageWidth="827" pageHeight="1169" math="1" shadow="0">
      <root>
        <mxCell id="0" />
        <mxCell id="1" parent="0" />
        <mxCell id="wR1qE_lEk0KlbYMBaGM3-1" value="&lt;font style=&quot;font-size: 16px;&quot;&gt;$$c*=Evaluate(pk,f,c_1,c_2,\cdots,c_n); Dec(c*)=f(m_1,m_2,\cdots,m_n)$$&lt;/font&gt;" style="text;html=1;strokeColor=none;fillColor=none;align=center;verticalAlign=middle;whiteSpace=wrap;rounded=0;" parent="1" vertex="1">
          <mxGeometry x="-20" y="230" width="60" height="30" as="geometry" />
        </mxCell>
        <mxCell id="wR1qE_lEk0KlbYMBaGM3-2" value="&lt;font face=&quot;Verdana&quot; style=&quot;font-size: 11px;&quot;&gt;正确性&lt;/font&gt;" style="rounded=0;whiteSpace=wrap;html=1;fontSize=9;" parent="1" vertex="1">
          <mxGeometry x="115" y="280" width="70" height="30" as="geometry" />
        </mxCell>
        <mxCell id="wR1qE_lEk0KlbYMBaGM3-6" style="edgeStyle=orthogonalEdgeStyle;rounded=0;orthogonalLoop=1;jettySize=auto;html=1;exitX=0.5;exitY=0;exitDx=0;exitDy=0;entryX=-2.667;entryY=1;entryDx=0;entryDy=0;entryPerimeter=0;" parent="1" source="wR1qE_lEk0KlbYMBaGM3-3" edge="1">
          <mxGeometry relative="1" as="geometry">
            <mxPoint x="-248.01999999999987" y="260" as="targetPoint" />
          </mxGeometry>
        </mxCell>
        <mxCell id="wR1qE_lEk0KlbYMBaGM3-3" value="&lt;font face=&quot;Times New Roman&quot; style=&quot;font-size: 11px;&quot;&gt;紧凑性&lt;/font&gt;" style="rounded=0;whiteSpace=wrap;html=1;fontSize=9;" parent="1" vertex="1">
          <mxGeometry x="-278" y="280" width="70" height="30" as="geometry" />
        </mxCell>
        <mxCell id="wR1qE_lEk0KlbYMBaGM3-4" value="&lt;font style=&quot;font-size: 11px;&quot; face=&quot;Times New Roman&quot;&gt;任意&lt;/font&gt;" style="rounded=0;whiteSpace=wrap;html=1;fontSize=9;" parent="1" vertex="1">
          <mxGeometry x="-133" y="280" width="70" height="30" as="geometry" />
        </mxCell>
        <mxCell id="wR1qE_lEk0KlbYMBaGM3-8" value="" style="endArrow=classic;html=1;rounded=0;" parent="1" edge="1">
          <mxGeometry width="50" height="50" relative="1" as="geometry">
            <mxPoint x="-98.29000000000002" y="280" as="sourcePoint" />
            <mxPoint x="-98.29000000000002" y="260" as="targetPoint" />
          </mxGeometry>
        </mxCell>
        <mxCell id="wR1qE_lEk0KlbYMBaGM3-9" value="" style="endArrow=classic;html=1;rounded=0;" parent="1" edge="1">
          <mxGeometry width="50" height="50" relative="1" as="geometry">
            <mxPoint x="149.70999999999998" y="280" as="sourcePoint" />
            <mxPoint x="149.70999999999998" y="260" as="targetPoint" />
          </mxGeometry>
        </mxCell>
        <mxCell id="wR1qE_lEk0KlbYMBaGM3-10" value="" style="endArrow=none;html=1;rounded=0;" parent="1" edge="1">
          <mxGeometry width="50" height="50" relative="1" as="geometry">
            <mxPoint x="24" y="260" as="sourcePoint" />
            <mxPoint x="276" y="260" as="targetPoint" />
          </mxGeometry>
        </mxCell>
        <mxCell id="4J7-bgVDbELEeenfHwWn-1" value="" style="shape=actor;whiteSpace=wrap;html=1;" vertex="1" parent="1">
          <mxGeometry x="-336" y="560" width="40" height="40" as="geometry" />
        </mxCell>
        <mxCell id="4J7-bgVDbELEeenfHwWn-2" value="客户端" style="text;html=1;align=center;verticalAlign=middle;resizable=0;points=[];autosize=1;strokeColor=none;fillColor=none;" vertex="1" parent="1">
          <mxGeometry x="-344" y="600" width="56" height="32" as="geometry" />
        </mxCell>
        <mxCell id="4J7-bgVDbELEeenfHwWn-4" value="" style="shape=table;startSize=0;container=1;collapsible=0;childLayout=tableLayout;fillColor=#dae8fc;strokeColor=default;" vertex="1" parent="1">
          <mxGeometry x="-248" y="472" width="72" height="64" as="geometry" />
        </mxCell>
        <mxCell id="4J7-bgVDbELEeenfHwWn-5" value="" style="shape=tableRow;horizontal=0;startSize=0;swimlaneHead=0;swimlaneBody=0;strokeColor=default;top=0;left=0;bottom=0;right=0;collapsible=0;dropTarget=0;fillColor=#dae8fc;points=[[0,0.5],[1,0.5]];portConstraint=eastwest;" vertex="1" parent="4J7-bgVDbELEeenfHwWn-4">
          <mxGeometry width="72" height="21" as="geometry" />
        </mxCell>
        <mxCell id="4J7-bgVDbELEeenfHwWn-6" value="" style="shape=partialRectangle;html=1;whiteSpace=wrap;connectable=0;strokeColor=default;overflow=hidden;fillColor=#dae8fc;top=0;left=0;bottom=0;right=0;pointerEvents=1;" vertex="1" parent="4J7-bgVDbELEeenfHwWn-5">
          <mxGeometry width="24" height="21" as="geometry">
            <mxRectangle width="24" height="21" as="alternateBounds" />
          </mxGeometry>
        </mxCell>
        <mxCell id="4J7-bgVDbELEeenfHwWn-7" value="" style="shape=partialRectangle;html=1;whiteSpace=wrap;connectable=0;strokeColor=default;overflow=hidden;fillColor=#dae8fc;top=0;left=0;bottom=0;right=0;pointerEvents=1;" vertex="1" parent="4J7-bgVDbELEeenfHwWn-5">
          <mxGeometry x="24" width="24" height="21" as="geometry">
            <mxRectangle width="24" height="21" as="alternateBounds" />
          </mxGeometry>
        </mxCell>
        <mxCell id="4J7-bgVDbELEeenfHwWn-8" value="" style="shape=partialRectangle;html=1;whiteSpace=wrap;connectable=0;strokeColor=default;overflow=hidden;fillColor=#dae8fc;top=0;left=0;bottom=0;right=0;pointerEvents=1;" vertex="1" parent="4J7-bgVDbELEeenfHwWn-5">
          <mxGeometry x="48" width="24" height="21" as="geometry">
            <mxRectangle width="24" height="21" as="alternateBounds" />
          </mxGeometry>
        </mxCell>
        <mxCell id="4J7-bgVDbELEeenfHwWn-9" value="" style="shape=tableRow;horizontal=0;startSize=0;swimlaneHead=0;swimlaneBody=0;strokeColor=default;top=0;left=0;bottom=0;right=0;collapsible=0;dropTarget=0;fillColor=#dae8fc;points=[[0,0.5],[1,0.5]];portConstraint=eastwest;" vertex="1" parent="4J7-bgVDbELEeenfHwWn-4">
          <mxGeometry y="21" width="72" height="22" as="geometry" />
        </mxCell>
        <mxCell id="4J7-bgVDbELEeenfHwWn-10" value="" style="shape=partialRectangle;html=1;whiteSpace=wrap;connectable=0;strokeColor=default;overflow=hidden;fillColor=#dae8fc;top=0;left=0;bottom=0;right=0;pointerEvents=1;" vertex="1" parent="4J7-bgVDbELEeenfHwWn-9">
          <mxGeometry width="24" height="22" as="geometry">
            <mxRectangle width="24" height="22" as="alternateBounds" />
          </mxGeometry>
        </mxCell>
        <mxCell id="4J7-bgVDbELEeenfHwWn-11" value="" style="shape=partialRectangle;html=1;whiteSpace=wrap;connectable=0;strokeColor=default;overflow=hidden;fillColor=#dae8fc;top=0;left=0;bottom=0;right=0;pointerEvents=1;" vertex="1" parent="4J7-bgVDbELEeenfHwWn-9">
          <mxGeometry x="24" width="24" height="22" as="geometry">
            <mxRectangle width="24" height="22" as="alternateBounds" />
          </mxGeometry>
        </mxCell>
        <mxCell id="4J7-bgVDbELEeenfHwWn-12" value="" style="shape=partialRectangle;html=1;whiteSpace=wrap;connectable=0;strokeColor=default;overflow=hidden;fillColor=#dae8fc;top=0;left=0;bottom=0;right=0;pointerEvents=1;" vertex="1" parent="4J7-bgVDbELEeenfHwWn-9">
          <mxGeometry x="48" width="24" height="22" as="geometry">
            <mxRectangle width="24" height="22" as="alternateBounds" />
          </mxGeometry>
        </mxCell>
        <mxCell id="4J7-bgVDbELEeenfHwWn-13" value="" style="shape=tableRow;horizontal=0;startSize=0;swimlaneHead=0;swimlaneBody=0;strokeColor=default;top=0;left=0;bottom=0;right=0;collapsible=0;dropTarget=0;fillColor=#dae8fc;points=[[0,0.5],[1,0.5]];portConstraint=eastwest;" vertex="1" parent="4J7-bgVDbELEeenfHwWn-4">
          <mxGeometry y="43" width="72" height="21" as="geometry" />
        </mxCell>
        <mxCell id="4J7-bgVDbELEeenfHwWn-14" value="" style="shape=partialRectangle;html=1;whiteSpace=wrap;connectable=0;strokeColor=default;overflow=hidden;fillColor=#dae8fc;top=0;left=0;bottom=0;right=0;pointerEvents=1;" vertex="1" parent="4J7-bgVDbELEeenfHwWn-13">
          <mxGeometry width="24" height="21" as="geometry">
            <mxRectangle width="24" height="21" as="alternateBounds" />
          </mxGeometry>
        </mxCell>
        <mxCell id="4J7-bgVDbELEeenfHwWn-15" value="" style="shape=partialRectangle;html=1;whiteSpace=wrap;connectable=0;strokeColor=default;overflow=hidden;fillColor=#dae8fc;top=0;left=0;bottom=0;right=0;pointerEvents=1;" vertex="1" parent="4J7-bgVDbELEeenfHwWn-13">
          <mxGeometry x="24" width="24" height="21" as="geometry">
            <mxRectangle width="24" height="21" as="alternateBounds" />
          </mxGeometry>
        </mxCell>
        <mxCell id="4J7-bgVDbELEeenfHwWn-16" value="" style="shape=partialRectangle;html=1;whiteSpace=wrap;connectable=0;strokeColor=default;overflow=hidden;fillColor=#dae8fc;top=0;left=0;bottom=0;right=0;pointerEvents=1;" vertex="1" parent="4J7-bgVDbELEeenfHwWn-13">
          <mxGeometry x="48" width="24" height="21" as="geometry">
            <mxRectangle width="24" height="21" as="alternateBounds" />
          </mxGeometry>
        </mxCell>
      </root>
    </mxGraphModel>
  </diagram>
</mxfile>
